<svg width="1024" height="1024" viewBox="0 0 1024 1024" fill="none" xmlns="http://www.w3.org/2000/svg">
  <defs>
    <linearGradient id="bgGradient" x1="140" y1="120" x2="900" y2="920" gradientUnits="userSpaceOnUse">
      <stop stop-color="#162034"/>
      <stop offset="0.55" stop-color="#0C1424"/>
      <stop offset="1" stop-color="#070D1A"/>
    </linearGradient>
    <radialGradient id="glowGradient" cx="0" cy="0" r="1" gradientUnits="userSpaceOnUse" gradientTransform="translate(558 428) rotate(122.6) scale(520 620)">
      <stop stop-color="#39D8FF" stop-opacity="0.38"/>
      <stop offset="1" stop-color="#39D8FF" stop-opacity="0"/>
    </radialGradient>
    <linearGradient id="calendarGradient" x1="364" y1="282" x2="668" y2="748" gradientUnits="userSpaceOnUse">
      <stop stop-color="#F8FBFF"/>
      <stop offset="1" stop-color="#DCEBFF"/>
    </linearGradient>
    <linearGradient id="ringGradient" x1="284" y1="252" x2="734" y2="742" gradientUnits="userSpaceOnUse">
      <stop stop-color="#58E5FF"/>
      <stop offset="1" stop-color="#7A6CFF"/>
    </linearGradient>
  </defs>

  <rect x="72" y="72" width="880" height="880" rx="210" fill="url(#bgGradient)"/>
  <rect x="72" y="72" width="880" height="880" rx="210" fill="url(#glowGradient)"/>

  <path d="M610.5 228.5C695 246 775 302 816 377.5C857 453 856.5 542 814 617C771.5 692 692.5 747 607 764.5" stroke="url(#ringGradient)" stroke-width="28" stroke-linecap="round" stroke-linejoin="round" opacity="0.9"/>

  <g filter="url(#calendarShadow)">
    <rect x="300" y="258" width="424" height="500" rx="86" fill="url(#calendarGradient)"/>
    <rect x="300" y="258" width="424" height="124" rx="86" fill="#E8F2FF"/>
    <rect x="356" y="210" width="42" height="110" rx="21" fill="#D1E3FF"/>
    <rect x="626" y="210" width="42" height="110" rx="21" fill="#D1E3FF"/>
    <rect x="370" y="442" width="118" height="104" rx="28" fill="#1F2E47"/>
    <rect x="532" y="442" width="118" height="104" rx="28" fill="#C9DCFF"/>
    <rect x="370" y="582" width="118" height="104" rx="28" fill="#C9DCFF"/>
    <rect x="532" y="582" width="118" height="104" rx="28" fill="#C9DCFF"/>
  </g>

  <path d="M742 314L768 372L826 398L768 424L742 482L716 424L658 398L716 372L742 314Z" fill="#55D8FF"/>

  <defs>
    <filter id="calendarShadow" x="266" y="224" width="492" height="568" filterUnits="userSpaceOnUse" color-interpolation-filters="sRGB">
      <feFlood flood-opacity="0" result="BackgroundImageFix"/>
      <feColorMatrix in="SourceAlpha" type="matrix" values="0 0 0 0 0 0 0 0 0 0 0 0 0 0 0 0 0 0 127 0" result="hardAlpha"/>
      <feOffset/>
      <feGaussianBlur stdDeviation="17"/>
      <feComposite in2="hardAlpha" operator="out"/>
      <feColorMatrix type="matrix" values="0 0 0 0 0.215686 0 0 0 0 0.572549 0 0 0 0 0.913725 0 0 0 0.26 0"/>
      <feBlend mode="normal" in2="BackgroundImageFix" result="effect1_dropShadow_0_1"/>
      <feBlend mode="normal" in="SourceGraphic" in2="effect1_dropShadow_0_1" result="shape"/>
    </filter>
  </defs>
</svg>
